<?xml version="1.0" encoding="utf-8" standalone="no"?><!DOCTYPE svg PUBLIC "-//W3C//DTD SVG 20010904//EN" "http://www.w3.org/TR/2001/REC-SVG-20010904/DTD/svg10.dtd"><svg xmlns="http://www.w3.org/2000/svg" width="633" height="344" xmlns:xlink="http://www.w3.org/1999/xlink"><source><![CDATA[CLient APP ->> Auth Server: Requests Token
Auth Server-->>CLient APP: Returns bearer token
CLient APP--CloudLoyalty: Request Data with token
Note left of CloudLoyalty: Receive request with\nImpesersonation headers
]]></source><desc></desc><defs><marker viewBox="0 0 5 5" markerWidth="5" markerHeight="5" orient="auto" refX="5" refY="2.5" id="markerArrowBlock"><path d="M 0 0 L 5 2.5 L 0 5 z"></path></marker><marker viewBox="0 0 9.6 16" markerWidth="4" markerHeight="16" orient="auto" refX="9.6" refY="8" id="markerArrowOpen"><path d="M 9.6,8 1.92,16 0,13.7 5.76,8 0,2.286 1.92,0 9.6,8 z"></path></marker></defs><g class="title"></g><g class="actor"><path d="M10,20C82.1,15.0 40.1,25.0 135.4,20.0C133.7,52.3 137.1,30.4 135.4,62.5C38.0,57.5 105.1,67.5 10.0,62.5C8.3,42.4 11.7,55.7 10.0,20.0" stroke="#000000" fill="#ffffff" style="stroke-width: 2;"></path><text x="20" y="44" style="font-size: 16px; font-family: danielbd;"><tspan x="20">CLient APP</tspan></text></g><g class="actor"><path d="M10,281.703125C40.1,276.7 105.3,286.7 135.4,281.7C137.1,309.8 133.7,294.2 135.4,324.2C56.1,329.2 30.1,319.2 10.0,324.2C8.3,296.1 11.7,291.9 10.0,281.7" stroke="#000000" fill="#ffffff" style="stroke-width: 2;"></path><text x="20" y="305.703125" style="font-size: 16px; font-family: danielbd;"><tspan x="20">CLient APP</tspan></text></g><path d="M72.7,62.5C81.5,133.2 63.9,235.7 72.7,281.7" stroke="#000000" fill="none" style="stroke-width: 2;"></path><g class="actor"><path d="M212.9375,20C233.6,25.2 317.3,14.8 341.8,20.0C343.5,30.2 340.1,32.2 341.8,62.5C321.2,67.7 310.9,57.3 212.9,62.5C211.2,38.5 214.6,54.1 212.9,20.0" stroke="#000000" fill="#ffffff" style="stroke-width: 2;"></path><text x="222.9375" y="44" style="font-size: 16px; font-family: danielbd;"><tspan x="222.9375">Auth Server</tspan></text></g><g class="actor"><path d="M212.9375,281.703125C263.6,276.5 294.0,286.9 341.8,281.7C340.1,292.6 343.5,291.9 341.8,324.2C303.1,329.4 233.6,319.0 212.9,324.2C211.2,288.5 214.6,293.9 212.9,281.7" stroke="#000000" fill="#ffffff" style="stroke-width: 2;"></path><text x="222.9375" y="305.703125" style="font-size: 16px; font-family: danielbd;"><tspan x="222.9375">Auth Server</tspan></text></g><path d="M277.4,62.5C286.1,97.6 268.6,246.6 277.4,281.7" stroke="#000000" fill="none" style="stroke-width: 2;"></path><g class="actor"><path d="M464.1484375,20C569.9,25.6 581.1,14.4 603.3,20.0C605.0,44.3 601.6,51.2 603.3,62.5C569.9,56.9 536.0,68.1 464.1,62.5C462.4,52.7 465.8,44.9 464.1,20.0" stroke="#000000" fill="#ffffff" style="stroke-width: 2;"></path><text x="474.1484375" y="44" style="font-size: 16px; font-family: danielbd;"><tspan x="474.1484375">CloudLoyalty</tspan></text></g><g class="actor"><path d="M464.1484375,281.703125C506.2,287.3 565.7,276.1 603.3,281.7C605.0,296.9 601.6,291.9 603.3,324.2C486.4,329.8 514.5,318.6 464.1,324.2C462.4,303.8 465.8,294.6 464.1,281.7" stroke="#000000" fill="#ffffff" style="stroke-width: 2;"></path><text x="474.1484375" y="305.703125" style="font-size: 16px; font-family: danielbd;"><tspan x="474.1484375">CloudLoyalty</tspan></text></g><path d="M533.7,62.5C525.0,208.4 542.5,227.5 533.7,281.7" stroke="#000000" fill="none" style="stroke-width: 2;"></path><g class="signal"><text x="108.046875" y="90.25" style="font-size: 16px; font-family: danielbd;"><tspan x="108.046875">Requests Token</tspan></text><path d="M72.7,105.0C122.4,113.2 244.6,96.8 277.4,105.0" stroke="#000000" fill="none" style="stroke-width: 2; marker-end: url(&quot;#markerArrowOpen&quot;);"></path></g><g class="signal"><text x="82.6875" y="132.75" style="font-size: 16px; font-family: danielbd;"><tspan x="82.6875">Returns bearer token</tspan></text><path d="M277.4,147.5C244.6,155.7 195.9,139.3 72.7,147.5" stroke="#000000" fill="none" style="stroke-width: 2; stroke-dasharray: 6, 2; marker-end: url(&quot;#markerArrowOpen&quot;);"></path></g><g class="signal"><text x="193.796875" y="175.25" style="font-size: 16px; font-family: danielbd;"><tspan x="193.796875">Request Data with token</tspan></text><path d="M72.7,190.0C265.6,171.6 423.1,208.4 533.7,190.0" stroke="#000000" fill="none" style="stroke-width: 2; stroke-dasharray: 6, 2; marker-end: url(&quot;#markerArrowBlock&quot;);"></path></g><g class="note"><path d="M297.375,210C360.5,201.3 419.8,218.7 513.7,210.0C511.7,218.3 515.8,247.7 513.7,261.7C404.4,270.4 414.4,253.0 297.4,261.7C295.3,253.4 299.4,218.3 297.4,210.0" stroke="#000000" fill="#ffffff" style="stroke-width: 2;"></path><text x="302.375" y="229" style="font-size: 16px; font-family: danielbd;"><tspan x="302.375">Receive request with</tspan><tspan dy="1.2em" x="302.375">Impesersonation headers</tspan></text></g></svg>