<?xml version="1.0" encoding="utf-8" standalone="no"?><!DOCTYPE svg PUBLIC "-//W3C//DTD SVG 20010904//EN" "http://www.w3.org/TR/2001/REC-SVG-20010904/DTD/svg10.dtd"><svg xmlns="http://www.w3.org/2000/svg" width="862" height="457" xmlns:xlink="http://www.w3.org/1999/xlink"><source><![CDATA[Client App->CLoudLoyalty: Requests a purchase\n authorization
CLoudLoyalty->Tenant Account: Requests a purchase\n authorization
Tenant Account-->Tenant Account: Validates participant balance
Tenant Account-->Tenant Account: Holds purchase points
Tenant Account->CLoudLoyalty: Returns a purchase\n Authorization Id
CLoudLoyalty->Client App: Returns a purchase Id]]></source><desc></desc><defs><marker viewBox="0 0 5 5" markerWidth="5" markerHeight="5" orient="auto" refX="5" refY="2.5" id="markerArrowBlock"><path d="M 0 0 L 5 2.5 L 0 5 z"></path></marker><marker viewBox="0 0 9.6 16" markerWidth="4" markerHeight="16" orient="auto" refX="9.6" refY="8" id="markerArrowOpen"><path d="M 9.6,8 1.92,16 0,13.7 5.76,8 0,2.286 1.92,0 9.6,8 z"></path></marker></defs><g class="title"></g><g class="actor"><path d="M10,20C60.5,24.5 57.2,15.5 123.7,20.0C122.0,43.7 125.4,26.8 123.7,62.5C98.7,58.0 28.2,67.0 10.0,62.5C8.3,33.4 11.7,55.7 10.0,20.0" stroke="#000000" fill="#ffffff" style="stroke-width: 2;"></path><text x="20" y="44" style="font-size: 16px; font-family: danielbd;"><tspan x="20">Client App</tspan></text></g><g class="actor"><path d="M10,395.109375C88.1,399.7 40.1,390.6 123.7,395.1C122.0,423.1 125.4,405.3 123.7,437.6C96.4,442.2 37.3,433.1 10.0,437.6C8.3,405.3 11.7,427.4 10.0,395.1" stroke="#000000" fill="#ffffff" style="stroke-width: 2;"></path><text x="20" y="419.109375" style="font-size: 16px; font-family: danielbd;"><tspan x="20">Client App</tspan></text></g><path d="M66.8,62.5C80.1,163.8 53.5,142.3 66.8,395.1" stroke="#000000" fill="none" style="stroke-width: 2;"></path><g class="actor"><path d="M205.3046875,20C241.2,14.0 293.1,26.0 354.7,20.0C356.4,55.7 353.0,29.7 354.7,62.5C318.8,68.5 330.8,56.5 205.3,62.5C203.6,39.3 207.0,44.1 205.3,20.0" stroke="#000000" fill="#ffffff" style="stroke-width: 2;"></path><text x="215.3046875" y="44" style="font-size: 16px; font-family: danielbd;"><tspan x="215.3046875">CLoudLoyalty</tspan></text></g><g class="actor"><path d="M205.3046875,395.109375C330.8,401.1 318.8,389.1 354.7,395.1C356.4,422.8 353.0,430.8 354.7,437.6C241.2,431.6 314.0,443.6 205.3,437.6C203.6,418.8 207.0,426.7 205.3,395.1" stroke="#000000" fill="#ffffff" style="stroke-width: 2;"></path><text x="215.3046875" y="419.109375" style="font-size: 16px; font-family: danielbd;"><tspan x="215.3046875">CLoudLoyalty</tspan></text></g><path d="M280.0,62.5C293.3,146.2 266.7,173.1 280.0,395.1" stroke="#000000" fill="none" style="stroke-width: 2;"></path><g class="actor"><path d="M402.28125,20C445.2,26.1 494.3,13.9 554.7,20.0C556.4,38.6 553.0,41.1 554.7,62.5C438.9,68.6 501.5,56.4 402.3,62.5C400.6,51.1 404.0,31.7 402.3,20.0" stroke="#000000" fill="#ffffff" style="stroke-width: 2;"></path><text x="412.28125" y="44" style="font-size: 16px; font-family: danielbd;"><tspan x="412.28125">Tenant Account</tspan></text></g><g class="actor"><path d="M402.28125,395.109375C438.9,389.0 512.1,401.2 554.7,395.1C553.0,416.5 556.4,412.5 554.7,437.6C516.5,431.5 489.1,443.7 402.3,437.6C404.0,408.5 400.6,410.1 402.3,395.1" stroke="#000000" fill="#ffffff" style="stroke-width: 2;"></path><text x="412.28125" y="419.109375" style="font-size: 16px; font-family: danielbd;"><tspan x="412.28125">Tenant Account</tspan></text></g><path d="M478.5,62.5C465.2,170.0 491.8,195.6 478.5,395.1" stroke="#000000" fill="none" style="stroke-width: 2;"></path><g class="signal"><text x="84.1640625" y="80.6484375" style="font-size: 16px; font-family: danielbd;"><tspan x="84.1640625">Requests a purchase</tspan><tspan dy="1.2em" x="84.1640625">authorization</tspan></text><path d="M66.8,124.2C143.1,132.7 193.7,115.7 280.0,124.2" stroke="#000000" fill="none" style="stroke-width: 2; marker-end: url(&quot;#markerArrowBlock&quot;);"></path></g><g class="signal"><text x="289.984375" y="142.3515625" style="font-size: 16px; font-family: danielbd;"><tspan x="289.984375">Requests a purchase</tspan><tspan dy="1.2em" x="289.984375">authorization</tspan></text><path d="M280.0,185.9C437.2,178.0 325.0,193.8 478.5,185.9" stroke="#000000" fill="none" style="stroke-width: 2; marker-end: url(&quot;#markerArrowBlock&quot;);"></path></g><g class="signal"><text x="503.484375" y="222.15625" style="font-size: 16px; font-family: danielbd;"><tspan x="503.484375">Validates participant balance</tspan></text><path d="M478.5,205.9C483.4,206.7 491.5,205.1 498.5,205.9" stroke="#000000" fill="none" style="stroke-width: 2; stroke-dasharray: 6, 2;"></path><path d="M498.5,205.9C499.6,211.6 497.4,225.6 498.5,233.4" stroke="#000000" fill="none" style="stroke-width: 2; stroke-dasharray: 6, 2;"></path><path d="M498.5,233.4C493.7,232.6 483.3,234.2 478.5,233.4" stroke="#000000" fill="none" style="stroke-width: 2; stroke-dasharray: 6, 2; marker-end: url(&quot;#markerArrowBlock&quot;);"></path></g><g class="signal"><text x="503.484375" y="264.65625" style="font-size: 16px; font-family: danielbd;"><tspan x="503.484375">Holds purchase points</tspan></text><path d="M478.5,248.4C485.8,247.6 492.5,249.2 498.5,248.4" stroke="#000000" fill="none" style="stroke-width: 2; stroke-dasharray: 6, 2;"></path><path d="M498.5,248.4C499.6,270.7 497.4,254.5 498.5,275.9" stroke="#000000" fill="none" style="stroke-width: 2; stroke-dasharray: 6, 2;"></path><path d="M498.5,275.9C486.2,276.7 492.7,275.1 478.5,275.9" stroke="#000000" fill="none" style="stroke-width: 2; stroke-dasharray: 6, 2; marker-end: url(&quot;#markerArrowBlock&quot;);"></path></g><g class="signal"><text x="294.3125" y="289.0546875" style="font-size: 16px; font-family: danielbd;"><tspan x="294.3125">Returns a purchase</tspan><tspan dy="1.2em" x="294.3125">Authorization Id</tspan></text><path d="M478.5,332.6C351.5,324.7 333.6,340.5 280.0,332.6" stroke="#000000" fill="none" style="stroke-width: 2; marker-end: url(&quot;#markerArrowBlock&quot;);"></path></g><g class="signal"><text x="76.84375" y="360.359375" style="font-size: 16px; font-family: danielbd;"><tspan x="76.84375">Returns a purchase Id</tspan></text><path d="M280.0,375.1C128.3,366.6 195.7,383.6 66.8,375.1" stroke="#000000" fill="none" style="stroke-width: 2; marker-end: url(&quot;#markerArrowBlock&quot;);"></path></g></svg>