<?xml version="1.0" encoding="utf-8" standalone="no"?><!DOCTYPE svg PUBLIC "-//W3C//DTD SVG 20010904//EN" "http://www.w3.org/TR/2001/REC-SVG-20010904/DTD/svg10.dtd"><svg xmlns="http://www.w3.org/2000/svg" width="471" height="230" xmlns:xlink="http://www.w3.org/1999/xlink"><source><![CDATA[Client App->External Vendor: Purchases a product or service
External Vendor->Client App: Returns successfully
]]></source><desc></desc><defs><marker viewBox="0 0 5 5" markerWidth="5" markerHeight="5" orient="auto" refX="5" refY="2.5" id="markerArrowBlock"><path d="M 0 0 L 5 2.5 L 0 5 z"></path></marker><marker viewBox="0 0 9.6 16" markerWidth="4" markerHeight="16" orient="auto" refX="9.6" refY="8" id="markerArrowOpen"><path d="M 9.6,8 1.92,16 0,13.7 5.76,8 0,2.286 1.92,0 9.6,8 z"></path></marker></defs><g class="title"></g><g class="actor"><path d="M10,20C98.9,24.5 71.1,15.5 123.7,20.0C122.0,46.1 125.4,55.7 123.7,62.5C29.6,58.0 101.5,67.0 10.0,62.5C8.3,55.7 11.7,28.2 10.0,20.0" stroke="#000000" fill="#ffffff" style="stroke-width: 2;"></path><text x="20" y="44" style="font-size: 16px; font-family: danielbd;"><tspan x="20">Client App</tspan></text></g><g class="actor"><path d="M10,167.5C48.6,163.0 28.2,172.0 123.7,167.5C125.4,203.2 122.0,187.5 123.7,210.0C105.5,214.5 79.5,205.5 10.0,210.0C11.7,176.2 8.3,177.7 10.0,167.5" stroke="#000000" fill="#ffffff" style="stroke-width: 2;"></path><text x="20" y="191.5" style="font-size: 16px; font-family: danielbd;"><tspan x="20">Client App</tspan></text></g><path d="M66.8,62.5C71.0,142.3 62.6,149.0 66.8,167.5" stroke="#000000" fill="none" style="stroke-width: 2;"></path><g class="actor"><path d="M279.3671875,20C374.7,13.5 402.5,26.5 441.4,20.0C443.1,30.2 439.7,40.0 441.4,62.5C318.3,56.0 402.5,69.0 279.4,62.5C277.7,34.1 281.1,52.3 279.4,20.0" stroke="#000000" fill="#ffffff" style="stroke-width: 2;"></path><text x="289.3671875" y="44" style="font-size: 16px; font-family: danielbd;"><tspan x="289.3671875">External Vendor</tspan></text></g><g class="actor"><path d="M279.3671875,167.5C319.6,174.0 380.6,161.0 441.4,167.5C443.1,198.9 439.7,186.9 441.4,210.0C383.6,216.5 415.5,203.5 279.4,210.0C281.1,177.7 277.7,175.3 279.4,167.5" stroke="#000000" fill="#ffffff" style="stroke-width: 2;"></path><text x="289.3671875" y="191.5" style="font-size: 16px; font-family: danielbd;"><tspan x="289.3671875">External Vendor</tspan></text></g><path d="M360.4,62.5C356.2,79.3 364.6,87.7 360.4,167.5" stroke="#000000" fill="none" style="stroke-width: 2;"></path><g class="signal"><text x="76.84375" y="90.25" style="font-size: 16px; font-family: danielbd;"><tspan x="76.84375">Purchases a product or service</tspan></text><path d="M66.8,105.0C250.3,116.7 290.0,93.3 360.4,105.0" stroke="#000000" fill="none" style="stroke-width: 2; marker-end: url(&quot;#markerArrowBlock&quot;);"></path></g><g class="signal"><text x="125.0546875" y="132.75" style="font-size: 16px; font-family: danielbd;"><tspan x="125.0546875">Returns successfully</tspan></text><path d="M360.4,147.5C122.4,135.8 230.4,159.2 66.8,147.5" stroke="#000000" fill="none" style="stroke-width: 2; marker-end: url(&quot;#markerArrowBlock&quot;);"></path></g></svg>