<?xml version="1.0" encoding="utf-8" standalone="no"?><!DOCTYPE svg PUBLIC "-//W3C//DTD SVG 20010904//EN" "http://www.w3.org/TR/2001/REC-SVG-20010904/DTD/svg10.dtd"><svg xmlns="http://www.w3.org/2000/svg" width="897" height="415" xmlns:xlink="http://www.w3.org/1999/xlink"><source><![CDATA[Client App->CLoudLoyalty: Requests the purchase\n cancelation with purchase id
CLoudLoyalty->Tenant Account: Requests a purchase\n cancelation
Tenant Account-->Tenant Account: Unlocks participant points
Tenant Account->CLoudLoyalty: Returns Ok
CLoudLoyalty->Client App: Returns the purchase\n status]]></source><desc></desc><defs><marker viewBox="0 0 5 5" markerWidth="5" markerHeight="5" orient="auto" refX="5" refY="2.5" id="markerArrowBlock"><path d="M 0 0 L 5 2.5 L 0 5 z"></path></marker><marker viewBox="0 0 9.6 16" markerWidth="4" markerHeight="16" orient="auto" refX="9.6" refY="8" id="markerArrowOpen"><path d="M 9.6,8 1.92,16 0,13.7 5.76,8 0,2.286 1.92,0 9.6,8 z"></path></marker></defs><g class="title"></g><g class="actor"><path d="M10,20C47.4,15.5 100.5,24.5 123.7,20.0C122.0,40.9 125.4,38.4 123.7,62.5C78.2,67.0 64.6,58.0 10.0,62.5C11.7,28.1 8.3,55.7 10.0,20.0" stroke="#000000" fill="#ffffff" style="stroke-width: 2;"></path><text x="20" y="44" style="font-size: 16px; font-family: danielbd;"><tspan x="20">Client App</tspan></text></g><g class="actor"><path d="M10,352.609375C96.4,357.2 90.0,348.1 123.7,352.6C125.4,373.9 122.0,375.3 123.7,395.1C96.4,399.7 68.2,390.6 10.0,395.1C8.3,388.3 11.7,376.2 10.0,352.6" stroke="#000000" fill="#ffffff" style="stroke-width: 2;"></path><text x="20" y="376.609375" style="font-size: 16px; font-family: danielbd;"><tspan x="20">Client App</tspan></text></g><path d="M66.8,62.5C55.2,306.2 78.4,272.1 66.8,352.6" stroke="#000000" fill="none" style="stroke-width: 2;"></path><g class="actor"><path d="M253.1484375,20C350.5,14.0 378.6,26.0 402.5,20.0C404.2,49.5 400.8,45.1 402.5,62.5C366.7,68.5 304.7,56.5 253.1,62.5C254.8,28.2 251.4,46.9 253.1,20.0" stroke="#000000" fill="#ffffff" style="stroke-width: 2;"></path><text x="263.1484375" y="44" style="font-size: 16px; font-family: danielbd;"><tspan x="263.1484375">CLoudLoyalty</tspan></text></g><g class="actor"><path d="M253.1484375,352.609375C277.0,358.6 289.0,346.6 402.5,352.6C400.8,384.9 404.2,386.5 402.5,395.1C289.0,389.1 283.3,401.1 253.1,395.1C251.4,382.6 254.8,387.7 253.1,352.6" stroke="#000000" fill="#ffffff" style="stroke-width: 2;"></path><text x="263.1484375" y="376.609375" style="font-size: 16px; font-family: danielbd;"><tspan x="263.1484375">CLoudLoyalty</tspan></text></g><path d="M327.8,62.5C339.4,132.1 316.2,148.5 327.8,352.6" stroke="#000000" fill="none" style="stroke-width: 2;"></path><g class="actor"><path d="M450.125,20C474.5,26.1 578.1,13.9 602.5,20.0C600.8,34.6 604.2,37.5 602.5,62.5C555.4,68.6 563.9,56.4 450.1,62.5C448.4,39.6 451.8,53.7 450.1,20.0" stroke="#000000" fill="#ffffff" style="stroke-width: 2;"></path><text x="460.125" y="44" style="font-size: 16px; font-family: danielbd;"><tspan x="460.125">Tenant Account</tspan></text></g><g class="actor"><path d="M450.125,352.609375C560.7,358.7 486.7,346.5 602.5,352.6C604.2,370.2 600.8,359.6 602.5,395.1C538.5,389.0 486.7,401.2 450.1,395.1C448.4,366.7 451.8,372.5 450.1,352.6" stroke="#000000" fill="#ffffff" style="stroke-width: 2;"></path><text x="460.125" y="376.609375" style="font-size: 16px; font-family: danielbd;"><tspan x="460.125">Tenant Account</tspan></text></g><path d="M526.3,62.5C514.7,108.9 537.9,306.2 526.3,352.6" stroke="#000000" fill="none" style="stroke-width: 2;"></path><g class="signal"><text x="76.84375" y="80.6484375" style="font-size: 16px; font-family: danielbd;"><tspan x="76.84375">Requests the purchase</tspan><tspan dy="1.2em" x="76.84375">cancelation with purchase id</tspan></text><path d="M66.8,124.2C130.9,134.6 283.1,113.8 327.8,124.2" stroke="#000000" fill="none" style="stroke-width: 2; marker-end: url(&quot;#markerArrowBlock&quot;);"></path></g><g class="signal"><text x="337.828125" y="142.3515625" style="font-size: 16px; font-family: danielbd;"><tspan x="337.828125">Requests a purchase</tspan><tspan dy="1.2em" x="337.828125">cancelation</tspan></text><path d="M327.8,185.9C494.6,178.0 384.1,193.8 526.3,185.9" stroke="#000000" fill="none" style="stroke-width: 2; marker-end: url(&quot;#markerArrowBlock&quot;);"></path></g><g class="signal"><text x="551.328125" y="222.15625" style="font-size: 16px; font-family: danielbd;"><tspan x="551.328125">Unlocks participant points</tspan></text><path d="M526.3,205.9C537.1,205.1 536.7,206.7 546.3,205.9" stroke="#000000" fill="none" style="stroke-width: 2; stroke-dasharray: 6, 2;"></path><path d="M546.3,205.9C547.4,226.4 545.2,221.4 546.3,233.4" stroke="#000000" fill="none" style="stroke-width: 2; stroke-dasharray: 6, 2;"></path><path d="M546.3,233.4C543.1,234.2 534.6,232.6 526.3,233.4" stroke="#000000" fill="none" style="stroke-width: 2; stroke-dasharray: 6, 2; marker-end: url(&quot;#markerArrowBlock&quot;);"></path></g><g class="signal"><text x="375.3125" y="256.15625" style="font-size: 16px; font-family: danielbd;"><tspan x="375.3125">Returns Ok</tspan></text><path d="M526.3,270.9C478.7,278.8 494.6,263.0 327.8,270.9" stroke="#000000" fill="none" style="stroke-width: 2; marker-end: url(&quot;#markerArrowBlock&quot;);"></path></g><g class="signal"><text x="102.8125" y="289.0546875" style="font-size: 16px; font-family: danielbd;"><tspan x="102.8125">Returns the purchase</tspan><tspan dy="1.2em" x="102.8125">status</tspan></text><path d="M327.8,332.6C221.4,322.2 244.6,343.0 66.8,332.6" stroke="#000000" fill="none" style="stroke-width: 2; marker-end: url(&quot;#markerArrowBlock&quot;);"></path></g></svg>