<?xml version="1.0" encoding="utf-8" standalone="no"?><!DOCTYPE svg PUBLIC "-//W3C//DTD SVG 20010904//EN" "http://www.w3.org/TR/2001/REC-SVG-20010904/DTD/svg10.dtd"><svg xmlns="http://www.w3.org/2000/svg" width="625" height="642" xmlns:xlink="http://www.w3.org/1999/xlink"><source><![CDATA[CloudLoyalty ->> Tenant Account: Requests a redemption\n authorization
Tenant Account-->>Tenant Account: Validates\nparticipant balance
Tenant Account->CloudLoyalty: Returns a purchase\n authorization Id
CloudLoyalty->Internal/\nExternal Vendor: Purchases a product or service
Internal/\nExternal Vendor->CloudLoyalty: Returns a Vendor Order Id
CloudLoyalty->>Tenant Account: Confirms purchase\nwith the authorization Id
Tenant Account-->>Tenant Account: debits the points
Tenant Account->>CloudLoyalty: returns ok
CloudLoyalty->>CloudLoyalty: Builds a purchase Id
]]></source><desc></desc><defs><marker viewBox="0 0 5 5" markerWidth="5" markerHeight="5" orient="auto" refX="5" refY="2.5" id="markerArrowBlock"><path d="M 0 0 L 5 2.5 L 0 5 z"></path></marker><marker viewBox="0 0 9.6 16" markerWidth="4" markerHeight="16" orient="auto" refX="9.6" refY="8" id="markerArrowOpen"><path d="M 9.6,8 1.92,16 0,13.7 5.76,8 0,2.286 1.92,0 9.6,8 z"></path></marker></defs><g class="title"></g><g class="actor"><path d="M10,20C72.4,25.6 43.4,14.4 149.2,20.0C146.7,34.8 151.6,65.0 149.2,81.7C115.8,76.1 123.9,87.3 10.0,81.7C12.5,34.2 7.5,41.7 10.0,20.0" stroke="#000000" fill="#ffffff" style="stroke-width: 2;"></path><text x="20" y="53.6015625" style="font-size: 16px; font-family: danielbd;"><tspan x="20">CloudLoyalty</tspan></text></g><g class="actor"><path d="M10,561.015625C54.7,555.4 115.6,566.6 149.2,561.0C146.7,581.2 151.6,610.0 149.2,622.7C115.8,628.3 94.7,617.2 10.0,622.7C12.5,570.9 7.5,612.8 10.0,561.0" stroke="#000000" fill="#ffffff" style="stroke-width: 2;"></path><text x="20" y="594.6171875" style="font-size: 16px; font-family: danielbd;"><tspan x="20">CloudLoyalty</tspan></text></g><path d="M79.6,81.7C98.8,221.9 60.4,484.3 79.6,561.0" stroke="#000000" fill="none" style="stroke-width: 2;"></path><g class="actor"><path d="M241.3828125,20C265.8,26.1 295.0,13.9 393.8,20.0C391.3,66.9 396.3,69.4 393.8,81.7C266.4,87.8 347.8,75.6 241.4,81.7C238.9,29.9 243.9,71.6 241.4,20.0" stroke="#000000" fill="#ffffff" style="stroke-width: 2;"></path><text x="251.3828125" y="53.6015625" style="font-size: 16px; font-family: danielbd;"><tspan x="251.3828125">Tenant Account</tspan></text></g><g class="actor"><path d="M241.3828125,561.015625C369.4,567.1 265.8,554.9 393.8,561.0C391.3,596.3 396.3,607.9 393.8,622.7C269.6,616.6 369.4,628.8 241.4,622.7C238.9,570.9 243.9,606.8 241.4,561.0" stroke="#000000" fill="#ffffff" style="stroke-width: 2;"></path><text x="251.3828125" y="594.6171875" style="font-size: 16px; font-family: danielbd;"><tspan x="251.3828125">Tenant Account</tspan></text></g><path d="M317.6,81.7C298.4,446.0 336.8,260.5 317.6,561.0" stroke="#000000" fill="none" style="stroke-width: 2;"></path><g class="actor"><path d="M433.4375,20C552.8,13.5 569.6,26.5 595.5,20.0C593.0,71.8 598.0,62.0 595.5,81.7C517.0,88.2 507.5,75.2 433.4,81.7C435.9,36.8 431.0,29.9 433.4,20.0" stroke="#000000" fill="#ffffff" style="stroke-width: 2;"></path><text x="443.4375" y="44" style="font-size: 16px; font-family: danielbd;"><tspan x="443.4375">Internal/</tspan><tspan dy="1.2em" x="443.4375">External Vendor</tspan></text></g><g class="actor"><path d="M433.4375,561.015625C500.2,554.5 556.6,567.5 595.5,561.0C598.0,612.8 593.0,607.9 595.5,622.7C486.6,629.2 512.2,616.2 433.4,622.7C431.0,607.9 435.9,612.8 433.4,561.0" stroke="#000000" fill="#ffffff" style="stroke-width: 2;"></path><text x="443.4375" y="585.015625" style="font-size: 16px; font-family: danielbd;"><tspan x="443.4375">Internal/</tspan><tspan dy="1.2em" x="443.4375">External Vendor</tspan></text></g><path d="M514.5,81.7C533.6,319.0 495.3,484.3 514.5,561.0" stroke="#000000" fill="none" style="stroke-width: 2;"></path><g class="signal"><text x="99.734375" y="99.8515625" style="font-size: 16px; font-family: danielbd;"><tspan x="99.734375">Requests a redemption</tspan><tspan dy="1.2em" x="99.734375">authorization</tspan></text><path d="M79.6,143.4C190.8,133.9 128.5,152.9 317.6,143.4" stroke="#000000" fill="none" style="stroke-width: 2; marker-end: url(&quot;#markerArrowOpen&quot;);"></path></g><g class="signal"><text x="342.5859375" y="189.2578125" style="font-size: 16px; font-family: danielbd;"><tspan x="342.5859375">Validates</tspan><tspan dy="1.2em" x="342.5859375">participant balance</tspan></text><path d="M317.6,163.4C332.8,162.6 325.6,164.2 337.6,163.4" stroke="#000000" fill="none" style="stroke-width: 2; stroke-dasharray: 6, 2;"></path><path d="M337.6,163.4C335.7,202.0 339.5,171.0 337.6,210.1" stroke="#000000" fill="none" style="stroke-width: 2; stroke-dasharray: 6, 2;"></path><path d="M337.6,210.1C320.8,210.9 322.4,209.3 317.6,210.1" stroke="#000000" fill="none" style="stroke-width: 2; stroke-dasharray: 6, 2; marker-end: url(&quot;#markerArrowOpen&quot;);"></path></g><g class="signal"><text x="113.6640625" y="223.2578125" style="font-size: 16px; font-family: danielbd;"><tspan x="113.6640625">Returns a purchase</tspan><tspan dy="1.2em" x="113.6640625">authorization Id</tspan></text><path d="M317.6,266.8C250.6,276.3 279.5,257.3 79.6,266.8" stroke="#000000" fill="none" style="stroke-width: 2; marker-end: url(&quot;#markerArrowBlock&quot;);"></path></g><g class="signal"><text x="160.25" y="294.5625" style="font-size: 16px; font-family: danielbd;"><tspan x="160.25">Purchases a product or service</tspan></text><path d="M79.6,309.3C335.2,291.9 303.0,326.7 514.5,309.3" stroke="#000000" fill="none" style="stroke-width: 2; marker-end: url(&quot;#markerArrowBlock&quot;);"></path></g><g class="signal"><text x="176.9296875" y="337.0625" style="font-size: 16px; font-family: danielbd;"><tspan x="176.9296875">Returns a Vendor Order Id</tspan></text><path d="M514.5,351.8C163.5,369.2 293.8,334.4 79.6,351.8" stroke="#000000" fill="none" style="stroke-width: 2; marker-end: url(&quot;#markerArrowBlock&quot;);"></path></g><g class="signal"><text x="89.5859375" y="369.9609375" style="font-size: 16px; font-family: danielbd;"><tspan x="89.5859375">Confirms purchase</tspan><tspan dy="1.2em" x="89.5859375">with the authorization Id</tspan></text><path d="M79.6,413.5C260.5,404.0 213.4,423.0 317.6,413.5" stroke="#000000" fill="none" style="stroke-width: 2; marker-end: url(&quot;#markerArrowOpen&quot;);"></path></g><g class="signal"><text x="342.5859375" y="449.765625" style="font-size: 16px; font-family: danielbd;"><tspan x="342.5859375">debits the points</tspan></text><path d="M317.6,433.5C326.0,432.7 324.1,434.3 337.6,433.5" stroke="#000000" fill="none" style="stroke-width: 2; stroke-dasharray: 6, 2;"></path><path d="M337.6,433.5C338.7,437.9 336.5,451.0 337.6,461.0" stroke="#000000" fill="none" style="stroke-width: 2; stroke-dasharray: 6, 2;"></path><path d="M337.6,461.0C324.4,460.2 325.7,461.8 317.6,461.0" stroke="#000000" fill="none" style="stroke-width: 2; stroke-dasharray: 6, 2; marker-end: url(&quot;#markerArrowOpen&quot;);"></path></g><g class="signal"><text x="151.9921875" y="483.765625" style="font-size: 16px; font-family: danielbd;"><tspan x="151.9921875">returns ok</tspan></text><path d="M317.6,498.5C205.9,508.0 117.7,489.0 79.6,498.5" stroke="#000000" fill="none" style="stroke-width: 2; marker-end: url(&quot;#markerArrowOpen&quot;);"></path></g><g class="signal"><text x="104.5859375" y="534.765625" style="font-size: 16px; font-family: danielbd;"><tspan x="104.5859375">Builds a purchase Id</tspan></text><path d="M79.6,518.5C90.3,517.7 90.4,519.3 99.6,518.5" stroke="#000000" fill="none" style="stroke-width: 2;"></path><path d="M99.6,518.5C100.7,534.5 98.5,532.8 99.6,546.0" stroke="#000000" fill="none" style="stroke-width: 2;"></path><path d="M99.6,546.0C94.8,545.2 86.5,546.8 79.6,546.0" stroke="#000000" fill="none" style="stroke-width: 2; marker-end: url(&quot;#markerArrowOpen&quot;);"></path></g></svg>