<?xml version="1.0" encoding="utf-8" standalone="no"?><!DOCTYPE svg PUBLIC "-//W3C//DTD SVG 20010904//EN" "http://www.w3.org/TR/2001/REC-SVG-20010904/DTD/svg10.dtd"><svg xmlns="http://www.w3.org/2000/svg" width="847" height="457" xmlns:xlink="http://www.w3.org/1999/xlink"><source><![CDATA[Client App->CLoudLoyalty: Requests a purchase\n authorization
CLoudLoyalty->Tenant Account: Requests a purchase\n authorization
Tenant Account-->Tenant Account: Validates participant balance
Tenant Account-->Tenant Account: Holds purchase points
Tenant Account->CLoudLoyalty: Returns a purchase\n Authorization Id
Tenant Account->Client App: Returns a purchase Id]]></source><desc></desc><defs><marker viewBox="0 0 5 5" markerWidth="5" markerHeight="5" orient="auto" refX="5" refY="2.5" id="markerArrowBlock"><path d="M 0 0 L 5 2.5 L 0 5 z"></path></marker><marker viewBox="0 0 9.6 16" markerWidth="4" markerHeight="16" orient="auto" refX="9.6" refY="8" id="markerArrowOpen"><path d="M 9.6,8 1.92,16 0,13.7 5.76,8 0,2.286 1.92,0 9.6,8 z"></path></marker></defs><g class="title"></g><g class="actor"><path d="M10,20C95.3,24.5 37.3,15.5 123.7,20.0C122.0,30.2 125.4,44.9 123.7,62.5C47.6,58.0 31.4,67.0 10.0,62.5C8.3,26.8 11.7,30.2 10.0,20.0" stroke="#000000" fill="#ffffff" style="stroke-width: 2;"></path><text x="20" y="44" style="font-size: 16px; font-family: danielbd;"><tspan x="20">Client App</tspan></text></g><g class="actor"><path d="M10,395.109375C74.5,390.6 55.0,399.7 123.7,395.1C125.4,414.9 122.0,415.1 123.7,437.6C58.6,442.2 105.5,433.1 10.0,437.6C11.7,401.9 8.3,430.8 10.0,395.1" stroke="#000000" fill="#ffffff" style="stroke-width: 2;"></path><text x="20" y="419.109375" style="font-size: 16px; font-family: danielbd;"><tspan x="20">Client App</tspan></text></g><path d="M66.8,62.5C80.1,315.3 53.5,182.7 66.8,395.1" stroke="#000000" fill="none" style="stroke-width: 2;"></path><g class="actor"><path d="M190.6640625,20C272.9,14.0 302.6,26.0 340.0,20.0C338.3,30.2 341.7,26.8 340.0,62.5C226.5,68.5 287.0,56.5 190.7,62.5C192.4,32.1 189.0,44.5 190.7,20.0" stroke="#000000" fill="#ffffff" style="stroke-width: 2;"></path><text x="200.6640625" y="44" style="font-size: 16px; font-family: danielbd;"><tspan x="200.6640625">CLoudLoyalty</tspan></text></g><g class="actor"><path d="M190.6640625,395.109375C251.8,389.1 270.9,401.1 340.0,395.1C341.7,425.2 338.3,425.4 340.0,437.6C262.2,431.6 273.4,443.6 190.7,437.6C192.4,422.4 189.0,405.3 190.7,395.1" stroke="#000000" fill="#ffffff" style="stroke-width: 2;"></path><text x="200.6640625" y="419.109375" style="font-size: 16px; font-family: danielbd;"><tspan x="200.6640625">CLoudLoyalty</tspan></text></g><path d="M265.3,62.5C278.6,282.1 252.0,191.2 265.3,395.1" stroke="#000000" fill="none" style="stroke-width: 2;"></path><g class="actor"><path d="M387.640625,20C412.0,13.9 490.9,26.1 540.0,20.0C538.3,55.3 541.7,32.8 540.0,62.5C515.7,56.4 475.0,68.6 387.6,62.5C389.3,30.8 385.9,42.2 387.6,20.0" stroke="#000000" fill="#ffffff" style="stroke-width: 2;"></path><text x="397.640625" y="44" style="font-size: 16px; font-family: danielbd;"><tspan x="397.640625">Tenant Account</tspan></text></g><g class="actor"><path d="M387.640625,395.109375C451.4,401.2 414.4,389.0 540.0,395.1C541.7,430.8 538.3,422.0 540.0,437.6C424.2,443.7 412.0,431.5 387.6,437.6C385.9,402.5 389.3,427.1 387.6,395.1" stroke="#000000" fill="#ffffff" style="stroke-width: 2;"></path><text x="397.640625" y="419.109375" style="font-size: 16px; font-family: danielbd;"><tspan x="397.640625">Tenant Account</tspan></text></g><path d="M463.8,62.5C450.5,218.8 477.1,228.7 463.8,395.1" stroke="#000000" fill="none" style="stroke-width: 2;"></path><g class="signal"><text x="76.84375" y="80.6484375" style="font-size: 16px; font-family: danielbd;"><tspan x="76.84375">Requests a purchase</tspan><tspan dy="1.2em" x="76.84375">authorization</tspan></text><path d="M66.8,124.2C155.8,116.3 112.4,132.1 265.3,124.2" stroke="#000000" fill="none" style="stroke-width: 2; marker-end: url(&quot;#markerArrowBlock&quot;);"></path></g><g class="signal"><text x="275.34375" y="142.3515625" style="font-size: 16px; font-family: danielbd;"><tspan x="275.34375">Requests a purchase</tspan><tspan dy="1.2em" x="275.34375">authorization</tspan></text><path d="M265.3,185.9C313.0,178.0 364.0,193.8 463.8,185.9" stroke="#000000" fill="none" style="stroke-width: 2; marker-end: url(&quot;#markerArrowBlock&quot;);"></path></g><g class="signal"><text x="488.84375" y="222.15625" style="font-size: 16px; font-family: danielbd;"><tspan x="488.84375">Validates participant balance</tspan></text><path d="M463.8,205.9C470.2,206.7 467.0,205.1 483.8,205.9" stroke="#000000" fill="none" style="stroke-width: 2; stroke-dasharray: 6, 2;"></path><path d="M483.8,205.9C482.7,210.4 484.9,227.8 483.8,233.4" stroke="#000000" fill="none" style="stroke-width: 2; stroke-dasharray: 6, 2;"></path><path d="M483.8,233.4C473.0,234.2 479.8,232.6 463.8,233.4" stroke="#000000" fill="none" style="stroke-width: 2; stroke-dasharray: 6, 2; marker-end: url(&quot;#markerArrowBlock&quot;);"></path></g><g class="signal"><text x="488.84375" y="264.65625" style="font-size: 16px; font-family: danielbd;"><tspan x="488.84375">Holds purchase points</tspan></text><path d="M463.8,248.4C480.6,247.6 469.9,249.2 483.8,248.4" stroke="#000000" fill="none" style="stroke-width: 2; stroke-dasharray: 6, 2;"></path><path d="M483.8,248.4C482.7,255.0 484.9,252.8 483.8,275.9" stroke="#000000" fill="none" style="stroke-width: 2; stroke-dasharray: 6, 2;"></path><path d="M483.8,275.9C476.6,275.1 468.5,276.7 463.8,275.9" stroke="#000000" fill="none" style="stroke-width: 2; stroke-dasharray: 6, 2; marker-end: url(&quot;#markerArrowBlock&quot;);"></path></g><g class="signal"><text x="279.671875" y="289.0546875" style="font-size: 16px; font-family: danielbd;"><tspan x="279.671875">Returns a purchase</tspan><tspan dy="1.2em" x="279.671875">Authorization Id</tspan></text><path d="M463.8,332.6C416.2,324.7 395.8,340.5 265.3,332.6" stroke="#000000" fill="none" style="stroke-width: 2; marker-end: url(&quot;#markerArrowBlock&quot;);"></path></g><g class="signal"><text x="168.7734375" y="360.359375" style="font-size: 16px; font-family: danielbd;"><tspan x="168.7734375">Returns a purchase Id</tspan></text><path d="M463.8,375.1C211.2,391.0 171.3,359.2 66.8,375.1" stroke="#000000" fill="none" style="stroke-width: 2; marker-end: url(&quot;#markerArrowBlock&quot;);"></path></g></svg>