<?xml version="1.0" encoding="utf-8" standalone="no"?><!DOCTYPE svg PUBLIC "-//W3C//DTD SVG 20010904//EN" "http://www.w3.org/TR/2001/REC-SVG-20010904/DTD/svg10.dtd"><svg xmlns="http://www.w3.org/2000/svg" width="902" height="415" xmlns:xlink="http://www.w3.org/1999/xlink"><source><![CDATA[Client App->CLoudLoyalty: Requests the purchase\n confirmation with purchase id
CLoudLoyalty->Tenant Account: Requests a purchase\n confirmation
Tenant Account-->Tenant Account: Debts participant points
Tenant Account->CLoudLoyalty: Returns Ok
CLoudLoyalty->Client App: Returns the purchase\n status]]></source><desc></desc><defs><marker viewBox="0 0 5 5" markerWidth="5" markerHeight="5" orient="auto" refX="5" refY="2.5" id="markerArrowBlock"><path d="M 0 0 L 5 2.5 L 0 5 z"></path></marker><marker viewBox="0 0 9.6 16" markerWidth="4" markerHeight="16" orient="auto" refX="9.6" refY="8" id="markerArrowOpen"><path d="M 9.6,8 1.92,16 0,13.7 5.76,8 0,2.286 1.92,0 9.6,8 z"></path></marker></defs><g class="title"></g><g class="actor"><path d="M10,20C81.3,24.5 96.4,15.5 123.7,20.0C125.4,33.0 122.0,48.6 123.7,62.5C44.6,58.0 28.2,67.0 10.0,62.5C11.7,40.5 8.3,30.2 10.0,20.0" stroke="#000000" fill="#ffffff" style="stroke-width: 2;"></path><text x="20" y="44" style="font-size: 16px; font-family: danielbd;"><tspan x="20">Client App</tspan></text></g><g class="actor"><path d="M10,352.609375C105.5,348.1 28.2,357.2 123.7,352.6C125.4,382.0 122.0,359.4 123.7,395.1C75.3,390.6 37.3,399.7 10.0,395.1C8.3,359.4 11.7,370.6 10.0,352.6" stroke="#000000" fill="#ffffff" style="stroke-width: 2;"></path><text x="20" y="376.609375" style="font-size: 16px; font-family: danielbd;"><tspan x="20">Client App</tspan></text></g><path d="M66.8,62.5C78.4,108.9 55.2,132.1 66.8,352.6" stroke="#000000" fill="none" style="stroke-width: 2;"></path><g class="actor"><path d="M273.3359375,20C329.7,14.0 371.2,26.0 422.7,20.0C421.0,51.4 424.4,52.3 422.7,62.5C309.2,68.5 311.3,56.5 273.3,62.5C275.0,55.7 271.6,26.8 273.3,20.0" stroke="#000000" fill="#ffffff" style="stroke-width: 2;"></path><text x="283.3359375" y="44" style="font-size: 16px; font-family: danielbd;"><tspan x="283.3359375">CLoudLoyalty</tspan></text></g><g class="actor"><path d="M273.3359375,352.609375C309.2,346.6 303.7,358.6 422.7,352.6C421.0,388.3 424.4,364.6 422.7,395.1C309.2,401.1 297.2,389.1 273.3,395.1C275.0,359.4 271.6,374.3 273.3,352.6" stroke="#000000" fill="#ffffff" style="stroke-width: 2;"></path><text x="283.3359375" y="376.609375" style="font-size: 16px; font-family: danielbd;"><tspan x="283.3359375">CLoudLoyalty</tspan></text></g><path d="M348.0,62.5C336.4,108.9 359.6,306.2 348.0,352.6" stroke="#000000" fill="none" style="stroke-width: 2;"></path><g class="actor"><path d="M470.3125,20C578.1,13.9 551.9,26.1 622.7,20.0C621.0,26.8 624.4,31.3 622.7,62.5C521.7,68.6 560.9,56.4 470.3,62.5C468.6,30.5 472.0,52.3 470.3,20.0" stroke="#000000" fill="#ffffff" style="stroke-width: 2;"></path><text x="480.3125" y="44" style="font-size: 16px; font-family: danielbd;"><tspan x="480.3125">Tenant Account</tspan></text></g><g class="actor"><path d="M470.3125,352.609375C513.4,358.7 586.1,346.5 622.7,352.6C624.4,370.6 621.0,362.6 622.7,395.1C506.9,389.0 561.3,401.2 470.3,395.1C472.0,384.9 468.6,388.3 470.3,352.6" stroke="#000000" fill="#ffffff" style="stroke-width: 2;"></path><text x="480.3125" y="376.609375" style="font-size: 16px; font-family: danielbd;"><tspan x="480.3125">Tenant Account</tspan></text></g><path d="M546.5,62.5C534.9,283.0 558.1,132.1 546.5,352.6" stroke="#000000" fill="none" style="stroke-width: 2;"></path><g class="signal"><text x="76.84375" y="80.6484375" style="font-size: 16px; font-family: danielbd;"><tspan x="76.84375">Requests the purchase</tspan><tspan dy="1.2em" x="76.84375">confirmation with purchase id</tspan></text><path d="M66.8,124.2C111.8,135.4 190.5,113.0 348.0,124.2" stroke="#000000" fill="none" style="stroke-width: 2; marker-end: url(&quot;#markerArrowBlock&quot;);"></path></g><g class="signal"><text x="358.015625" y="142.3515625" style="font-size: 16px; font-family: danielbd;"><tspan x="358.015625">Requests a purchase</tspan><tspan dy="1.2em" x="358.015625">confirmation</tspan></text><path d="M348.0,185.9C514.8,178.0 391.0,193.8 546.5,185.9" stroke="#000000" fill="none" style="stroke-width: 2; marker-end: url(&quot;#markerArrowBlock&quot;);"></path></g><g class="signal"><text x="571.515625" y="222.15625" style="font-size: 16px; font-family: danielbd;"><tspan x="571.515625">Debts participant points</tspan></text><path d="M546.5,205.9C563.3,206.7 559.0,205.1 566.5,205.9" stroke="#000000" fill="none" style="stroke-width: 2; stroke-dasharray: 6, 2;"></path><path d="M566.5,205.9C565.4,225.7 567.6,216.8 566.5,233.4" stroke="#000000" fill="none" style="stroke-width: 2; stroke-dasharray: 6, 2;"></path><path d="M566.5,233.4C549.7,234.2 563.3,232.6 546.5,233.4" stroke="#000000" fill="none" style="stroke-width: 2; stroke-dasharray: 6, 2; marker-end: url(&quot;#markerArrowBlock&quot;);"></path></g><g class="signal"><text x="395.5" y="256.15625" style="font-size: 16px; font-family: danielbd;"><tspan x="395.5">Returns Ok</tspan></text><path d="M546.5,270.9C514.8,263.0 475.1,278.8 348.0,270.9" stroke="#000000" fill="none" style="stroke-width: 2; marker-end: url(&quot;#markerArrowBlock&quot;);"></path></g><g class="signal"><text x="112.90625" y="289.0546875" style="font-size: 16px; font-family: danielbd;"><tspan x="112.90625">Returns the purchase</tspan><tspan dy="1.2em" x="112.90625">status</tspan></text><path d="M348.0,332.6C279.5,343.9 191.7,321.4 66.8,332.6" stroke="#000000" fill="none" style="stroke-width: 2; marker-end: url(&quot;#markerArrowBlock&quot;);"></path></g></svg>